<svg height="511pt" viewBox="1 -43 511.999 511" width="511pt" xmlns="http://www.w3.org/2000/svg"><path d="m404.707031 194.214844c0-30.3125-24.660156-54.976563-54.976562-54.976563-30.316407 0-54.976563 24.664063-54.976563 54.976563 0 30.316406 24.660156 54.980468 54.976563 54.980468 30.316406 0 54.976562-24.664062 54.976562-54.980468zm-79.953125 0c0-13.769532 11.203125-24.976563 24.976563-24.976563 13.773437 0 24.976562 11.203125 24.976562 24.976563 0 13.773437-11.203125 24.980468-24.976562 24.980468-13.773438 0-24.976563-11.207031-24.976563-24.980468zm0 0"/><path d="m162.355469 249.195312c30.316406 0 54.976562-24.664062 54.976562-54.980468 0-30.3125-24.660156-54.976563-54.976562-54.976563-30.316407 0-54.976563 24.664063-54.976563 54.976563 0 30.316406 24.660156 54.980468 54.976563 54.980468zm0-79.957031c13.773437 0 24.976562 11.207031 24.976562 24.976563 0 13.773437-11.203125 24.980468-24.976562 24.980468-13.773438 0-24.976563-11.203124-24.976563-24.980468 0-13.769532 11.203125-24.976563 24.976563-24.976563zm0 0"/><path d="m482 .5c0 44.140625-33.796875 80.53125-76.871094 84.671875-37.867187-37.421875-90.707031-60.695313-149.085937-60.695313-58.382813 0-111.222657 23.277344-149.09375 60.699219-43.109375-4.101562-76.949219-40.507812-76.949219-84.675781h-30v108.96875c0 30.695312 16.242188 59.753906 42.390625 75.835938l8.414063 5.175781c-2.074219 11.351562-3.160157 23.023437-3.160157 34.941406 0 110.800781 93.488281 200.945313 208.398438 200.945313 114.910156 0 208.398437-90.144532 208.398437-200.945313 0-11.933594-1.089844-23.625-3.171875-34.992187l8.339844-5.125c26.144531-16.082032 42.390625-45.140626 42.390625-75.835938v-108.96875zm-321.453125 115.074219h3.617187c42.554688.96875 76.878907 35.859375 76.878907 78.640625 0 43.390625-35.300781 78.691406-78.6875 78.691406-43.390625 0-78.6875-35.300781-78.6875-78.691406 0-42.78125 34.324219-77.671875 76.878906-78.640625zm95.496094 133.675781c8.382812 14.214844 19.902343 26.367188 33.605469 35.492188l-33.605469 38.804687-33.609375-38.804687c13.707031-9.125 25.226562-21.277344 33.609375-35.492188zm15-55.035156c0-42.78125 34.324219-77.671875 76.878906-78.640625h3.617187c42.554688.96875 76.878907 35.859375 76.878907 78.640625 0 43.390625-35.300781 78.6875-78.6875 78.6875s-78.6875-35.296875-78.6875-78.6875zm87.480469-108.640625h-5.722657c-1.019531-.027344-2.042969-.042969-3.070312-.042969-1.027344 0-2.050781.015625-3.070313.042969h-1.28125v.050781c-38.039062 1.507812-71.109375 22.652344-89.335937 53.554688-18.238281-30.925782-51.34375-52.082032-89.417969-53.558594v-.046875h-1.195312c-1.023438-.027344-2.046876-.042969-3.074219-.042969-1.027344 0-2.050781.015625-3.070313.042969h-5.71875c29.015625-19.582031 64.367188-31.097657 102.480469-31.097657 38.109375 0 73.457031 11.515626 102.476563 31.097657zm-300.417969 74.175781c-17.335938-10.660156-28.105469-29.929688-28.105469-50.28125v-31.558594c14.445312 15.859375 33.253906 27.679688 54.507812 33.542969-10.703124 14.929687-19.371093 31.316406-25.601562 48.789063zm197.9375 236.617188c-82.675781 0-152.386719-54.171876-172.53125-127.417969 19.820312 20.898437 47.835937 33.953125 78.84375 33.953125 11.121093 0 21.855469-1.679688 31.964843-4.800782l61.722657 71.273438 61.71875-71.273438c10.113281 3.121094 20.847656 4.800782 31.96875 4.800782 31.007812 0 59.019531-13.054688 78.839843-33.953125-20.140624 73.246093-89.851562 127.417969-172.527343 127.417969zm225.957031-286.898438c0 20.351562-10.769531 39.621094-28.105469 50.28125l-.730469.449219c-6.230468-17.464844-14.898437-33.84375-25.597656-48.769531 21.222656-5.867188 40.003906-17.675782 54.433594-33.519532zm0 0"/></svg>