<?xml version="1.0" encoding="iso-8859-1"?>
<!-- Generator: Adobe Illustrator 19.0.0, SVG Export Plug-In . SVG Version: 6.00 Build 0)  -->
<svg version="1.1" id="Capa_1" xmlns="http://www.w3.org/2000/svg" xmlns:xlink="http://www.w3.org/1999/xlink" x="0px" y="0px"
	 viewBox="0 0 512 512" style="enable-background:new 0 0 512 512;" xml:space="preserve">
<g>
	<g>
		<g>
			<path d="M266,130.148c5.52,0,10-4.48,10-10c0-5.52-4.48-10-10-10c-5.52,0-10,4.48-10,10C256,125.668,260.48,130.148,266,130.148z
				"/>
			<path d="M444.514,138.778c26.745-31.391,46.148-59.695,51.464-75.332c1.019-2.995,0.56-6.296-1.238-8.899
				c-1.797-2.604-4.721-4.204-7.883-4.313c-38.573-1.334-75.678,13.251-102.928,40.229C352.605,77.853,304.539,70.148,256,70.148
				c-48.531,0-96.599,7.703-127.929,20.307c-27.252-26.973-64.378-41.55-102.928-40.221c-3.161,0.109-6.084,1.709-7.882,4.312
				c-1.797,2.603-2.257,5.902-1.241,8.897c5.207,15.338,23.42,42.146,49.359,72.857C24.782,164.114,0,210.526,0,260.148
				c0,82.71,67.29,150,150,150c11.926,0,25.248-1.387,36.042-3.689l48.834,46.706c5.837,5.791,13.48,8.686,21.124,8.686
				c7.644,0,15.287-2.895,21.124-8.686l50.867-48.651c12.612,3.559,27.875,5.634,41.989,5.634c78.31,0,142.02-65.76,142.02-146.59
				C512,211.669,485.733,165.043,444.514,138.778z M41.778,70.727c29.2,2.88,56.454,16.414,76.493,38.389
				c2.939,3.224,7.628,4.17,11.584,2.339C157.861,98.512,207.376,90.148,256,90.148c48.631,0,98.145,8.367,126.142,21.316
				c3.958,1.83,8.648,0.885,11.589-2.34c20.041-21.985,47.296-35.522,76.507-38.398C435.983,128.711,326.336,244.054,256,262.745
				C185.391,243.983,75.368,127.497,41.778,70.727z M302.12,264.461c10.768-6.121,21.47-13.214,31.809-20.762
				c-3.112,4.727-4.93,10.378-4.93,16.449c0,16.542,13.458,30,30,30s30-13.458,30-30s-13.458-30-30-30
				c-3.232,0-6.344,0.52-9.263,1.47c14.673-11.703,28.191-23.797,39.548-34.564C413.259,208.627,429,233.276,429,260.148
				c0,38.599-31.402,70-70,70c-19.258,0-37.479-7.9-50.696-21.803c0.459-2.753,0.696-5.495,0.696-8.197
				C309,287.532,306.584,275.165,302.12,264.461z M349,260.148c0-5.514,4.486-10,10-10c5.514,0,10,4.486,10,10
				c0,5.514-4.486,10-10,10C353.486,270.148,349,265.661,349,260.148z M288.999,300.148c0,2.723-0.405,5.563-1.206,8.444
				c-4.882,17.582-22.806,32.703-31.829,39.398c-10.382-7.696-27.19-22.95-31.759-39.398c-0.8-2.88-1.205-5.721-1.205-8.444
				c0-9.431,1.654-18.585,4.729-26.515c9.128,4.147,17.826,7.216,25.954,9.153c0.762,0.182,1.539,0.272,2.317,0.272
				s1.556-0.091,2.317-0.272c8.129-1.937,16.827-5.006,25.954-9.153C287.346,281.563,288.999,290.717,288.999,300.148z
				 M203.697,308.344c-13.218,13.904-31.438,21.804-50.696,21.804c-38.598,0-70-31.401-70-70
				c-0.001-26.872,15.74-51.521,39.714-63.094c11.357,10.767,24.875,22.861,39.547,34.564c-2.919-0.95-6.03-1.47-9.262-1.47
				c-16.542,0-30,13.458-30,30c0,16.542,13.458,30,30,30s30-13.458,30-30c0-6.07-1.818-11.721-4.929-16.448
				c10.339,7.548,21.041,14.64,31.809,20.761c-4.464,10.706-6.879,23.073-6.879,35.687
				C203.001,302.85,203.238,305.592,203.697,308.344z M163,260.148c0,5.514-4.486,10-10,10c-5.514,0-10-4.486-10-10
				c0-5.514,4.486-10,10-10C158.514,250.148,163,254.634,163,260.148z M369.98,390.148c-8.022,0-16.629-0.798-24.659-2.208
				l0.59-0.564c3.992-3.817,4.133-10.147,0.316-14.139c-3.818-3.993-10.149-4.133-14.139-0.316l-68.861,65.861
				c-0.054,0.051-0.106,0.104-0.159,0.155c-3.896,3.898-10.24,3.898-14.137,0c-0.053-0.052-0.105-0.104-0.159-0.155l-68.861-65.86
				c-3.992-3.819-10.321-3.677-14.139,0.314c-3.817,3.992-3.676,10.322,0.315,14.139l1.825,1.745
				c-5.933,0.661-12.095,1.028-17.913,1.028c-71.682,0-130-58.317-130-130c0-43.782,22.258-84.692,58.585-108.64
				c9.442,10.583,19.195,20.92,29.138,30.902C80.496,198.372,63,228.021,63,260.148c0,49.626,40.374,90,90,90
				c21.537,0,42.067-7.669,58.225-21.415c13.286,23.317,38.218,39.11,39.477,39.896c1.621,1.013,3.459,1.519,5.298,1.519
				s3.677-0.506,5.298-1.519c1.259-0.786,26.191-16.58,39.477-39.897c16.157,13.746,36.687,21.415,58.225,21.415
				c49.626,0,90-40.374,90-90c0-32.125-17.494-61.773-44.72-77.736c9.15-9.186,18.146-18.684,26.883-28.394
				c37.71,22.63,60.837,63.901,60.837,109.54C492,333.359,437.263,390.148,369.98,390.148z"/>
			<path d="M304.495,133.374c24.214,3.337,45.306,8.582,57.868,14.391c5.035,2.327,10.967,0.109,13.273-4.881
				c2.317-5.013,0.133-10.955-4.881-13.273c-19.555-9.041-48.197-13.936-63.53-16.049c-5.464-0.748-10.518,3.069-11.271,8.541
				C295.2,127.573,299.024,132.62,304.495,133.374z"/>
		</g>
	</g>
</g>
<g>
</g>
<g>
</g>
<g>
</g>
<g>
</g>
<g>
</g>
<g>
</g>
<g>
</g>
<g>
</g>
<g>
</g>
<g>
</g>
<g>
</g>
<g>
</g>
<g>
</g>
<g>
</g>
<g>
</g>
</svg>
